<svg viewBox="0 0 200 200" xmlns="http://www.w3.org/2000/svg">
  <defs>
    <linearGradient id="krakenGradient" x1="0%" y1="0%" x2="100%" y2="100%">
      <stop offset="0%" style="stop-color:#22d3ee;stop-opacity:1" />
      <stop offset="50%" style="stop-color:#0891b2;stop-opacity:1" />
      <stop offset="100%" style="stop-color:#164e63;stop-opacity:1" />
    </linearGradient>
    <filter id="shadow" x="-50%" y="-50%" width="200%" height="200%">
      <feDropShadow dx="0" dy="4" stdDeviation="8" flood-color="#000000" flood-opacity="0.3"/>
    </filter>
  </defs>
  
  <!-- Main octopus head - large rounded shape -->
  <ellipse cx="100" cy="70" rx="45" ry="35" fill="url(#krakenGradient)" filter="url(#shadow)"/>
  
  <!-- Eyes - distinctive almond shape -->
  <ellipse cx="85" cy="60" rx="8" ry="12" fill="#7dd3fc" opacity="0.9"/>
  <ellipse cx="115" cy="60" rx="8" ry="12" fill="#7dd3fc" opacity="0.9"/>
  
  <!-- Eye pupils -->
  <ellipse cx="85" cy="62" rx="3" ry="5" fill="#0c4a6e"/>
  <ellipse cx="115" cy="62" rx="3" ry="5" fill="#0c4a6e"/>
  
  <!-- Tentacles - 8 curved tentacles with natural flow -->
  <!-- Left side tentacles -->
  <path d="M 65 95 Q 35 115 45 155 Q 50 175 25 185" 
        stroke="url(#krakenGradient)" stroke-width="12" fill="none" 
        stroke-linecap="round" filter="url(#shadow)"/>
  
  <path d="M 75 100 Q 45 125 55 165 Q 60 185 35 195" 
        stroke="url(#krakenGradient)" stroke-width="10" fill="none" 
        stroke-linecap="round" filter="url(#shadow)"/>
  
  <!-- Center-left tentacles -->
  <path d="M 85 105 Q 70 140 80 175 Q 85 195 65 200" 
        stroke="url(#krakenGradient)" stroke-width="11" fill="none" 
        stroke-linecap="round" filter="url(#shadow)"/>
  
  <!-- Center tentacles -->
  <path d="M 100 105 Q 95 145 100 180 Q 105 200 100 210" 
        stroke="url(#krakenGradient)" stroke-width="12" fill="none" 
        stroke-linecap="round" filter="url(#shadow)"/>
  
  <!-- Center-right tentacles -->
  <path d="M 115 105 Q 130 140 120 175 Q 115 195 135 200" 
        stroke="url(#krakenGradient)" stroke-width="11" fill="none" 
        stroke-linecap="round" filter="url(#shadow)"/>
  
  <!-- Right side tentacles -->
  <path d="M 125 100 Q 155 125 145 165 Q 140 185 165 195" 
        stroke="url(#krakenGradient)" stroke-width="10" fill="none" 
        stroke-linecap="round" filter="url(#shadow)"/>
  
  <path d="M 135 95 Q 165 115 155 155 Q 150 175 175 185" 
        stroke="url(#krakenGradient)" stroke-width="12" fill="none" 
        stroke-linecap="round" filter="url(#shadow)"/>
  
  <!-- Additional smaller tentacle -->
  <path d="M 100 100 Q 85 130 90 160 Q 95 180 85 190" 
        stroke="url(#krakenGradient)" stroke-width="8" fill="none" 
        stroke-linecap="round" filter="url(#shadow)"/>
</svg> 